#!OML:ASF E:/inclinewalkrobotboard/Project1/Captureday1/Session1/subject1.ASF
:FULLY-SPECIFIED
:DEGREES
188
root 0 0 0 0.46038300218109907 -3.1673068442966663 1.253295452658662
lowerback 11.504416429763795 0.6337974955442018 -0.5286010081134348
upperback -2.778117585557895 0.801088623641417 0.017316014112769507
thorax -9.449471696816017 0.3576106404193187 0.19626670788404899
lowerneck -9.801470809245414 0.2611301577993119 2.3750003810879043
upperneck 18.552576273688132 1.1300673285286518 -5.503220703037942
head 7.447464947404984 0.2723717736356164 -2.08971722549182
rclavicle 2.124474316443909E-16 -7.382486774605987E-16
rhumerus 2.580796387503735 3.437719204888584 -59.56602553754857
rradius 56.19533320006376
rwrist 17.539331264740756
rhand -28.400099904035976 -27.54333561380064
rfingers 7.125019999999986
rthumb -1.767630763473293 -57.78215862482549
lclavicle -8.353028798570811E-16 -1.7523462573328424E-16
lhumerus 3.07020923673101 -9.59878663189836 59.03880924571726
lradius 55.77124406305649
lwrist -11.270515375649035
lhand -38.86009350521533 -35.98486464753011
lfingers 7.125019999999983
lthumb -11.801234982680976 -6.292270258393401
rfemur -25.257879504791546 1.7997419174327283 20.039230789323316
rtibia 47.69756125792891
rfoot -7.335489699446752 -9.852391710830148
rtoes -1.429819736746529
lfemur -14.86505370919191 -0.3231668986290408 -17.19090328078386
ltibia 42.45247695802158
lfoot -6.06314331679289 -4.733198539224254
ltoes -6.223348582009101
189
root 0 0 0 0.4605055105503082 -3.1660292498551366 1.2556740137024878
lowerback 11.504602316320938 0.6329586259857768 -0.5308875786500938
upperback -2.77837642508234 0.7996621745939627 0.017128394795993263
thorax -9.449906577518409 0.35697015338507526 0.19764803772621897
lowerneck -9.800671869914241 0.26154280916941275 2.375288067259025
upperneck 18.552772957801913 1.130762785812807 -5.5039119673774195
head 7.4474272480193004 0.272683112973769 -2.089907548988373
rclavicle 2.126042828817203E-16 -7.382099185574658E-16
rhumerus 2.58117419763537 3.4379147238677685 -59.565689457791905
rradius 56.19571164511006
rwrist 17.539566706397807
rhand -28.400222222997762 -27.54399278936803
rfingers 7.125019999999986
rthumb -1.767771927061756 -57.782853685163154
lclavicle -8.353471407018301E-16 -1.7524770518393836E-16
lhumerus 3.070338735206807 -9.59877852485976 59.03871121103226
lradius 55.771259016145834
lwrist -11.270623105347383
lhand -38.860118636089915 -35.98518993671791
lfingers 7.125019999999983
lthumb -11.80126669704853 -6.292659364194513
rfemur -25.300855761136003 1.7880032776554526 20.017795989493994
rtibia 47.7494542854618
rfoot -7.314808487092705 -9.857497036081027
rtoes -1.4313011757805252
lfemur -14.879122089597736 -0.3112379651849041 -17.178468525634365
ltibia 42.536942543663976
lfoot -6.033603788918704 -4.761308086838456
ltoes -6.236928190656216
190
root 0 0 0 0.4607151232964579 -3.163991761261279 1.2592563924856066
lowerback 11.504818113857956 0.631639612368032 -0.5344254058155299
upperback -2.7787393646263028 0.79743930593499 0.016881147113626316
thorax -9.450484817143064 0.3559727571196534 0.19979942505105674
lowerneck -9.799589754322778 0.2621691129781021 2.375663793442031
upperneck 18.5528765041344 1.131774888117313 -5.504828524824933
head 7.447315775399701 0.27314233745782057 -2.090144005652686
rclavicle 2.1264917213968301E-16 -7.381388152051947E-16
rhumerus 2.581562694535627 3.438128821173434 -59.56542704450872
rradius 56.196053344325136
rwrist 17.539780906097363
rhand -28.400344091679944 -27.544602239078753
rfingers 7.125019999999986
rthumb -1.767896125352448 -57.783481794224556
lclavicle -8.353267618346957E-16 -1.750636636288192E-16
lhumerus 3.0724087337348784 -9.599353404586132 59.0372817850064
lradius 55.77286116976849
lwrist -11.271601776547643
lhand -38.86081207979586 -35.98862060906048
lfingers 7.125019999999983
lthumb -11.801921983422869 -6.296214826165951
rfemur -25.35049091456404 1.7752937888166123 19.99329711804136
rtibia 47.800509979552224
rfoot -7.29670430683993 -9.865342154596327
rtoes -1.4374896645662707
lfemur -14.895113110681187 -0.3011907225958895 -17.166557370464478
ltibia 42.607919699211074
lfoot -6.008994326157373 -4.783654648023033
ltoes -6.247397521925772
191
root 0 0 0 0.46073706416849713 -3.1668821314837863 1.2536233406239214
lowerback 11.504272727300036 0.6335694780761587 -0.5291315706555696
upperback -2.778269537532637 0.8007551905701067 0.017329228322805035
thorax -9.449557123184686 0.35746569054884836 0.1965199622383489
lowerneck -9.801339689307305 0.26144084368804466 2.3751483285531263
upperneck 18.551801862758666 1.1303340455566184 -5.503272320871572
head 7.447146759527664 0.2725195418919928 -2.0897089382917633
rclavicle 2.1277414397806516E-16 -7.368166831083358E-16
rhumerus 2.581277379105533 3.438149739632175 -59.56581349484301
rradius 56.1955885091957
rwrist 17.53927005849387
rhand -28.40022301221975 -27.543773087460632
rfingers 7.125019999999986
rthumb -1.7676218415297047 -57.78221571964204
lclavicle -8.337046615199868E-16 -1.7350584257031158E-16
lhumerus 3.0753412002973164 -9.600306850666719 59.03550246907909
lradius 55.77486736808723
lwrist -11.272997229705858
lhand -38.86172525205659 -35.99290265174851
lfingers 7.125019999999983
lthumb -11.80269512014886 -6.301291196252599
rfemur -25.25333348136438 1.8021877986497263 20.042034582815887
rtibia 47.679936786089705
rfoot -7.344502324787056 -9.854379347848221
rtoes -1.4348665556975058
lfemur -14.879186365277125 -0.3309632346374868 -17.190038879918053
ltibia 42.39923452427638
lfoot -6.081256981198941 -4.708634320131397
ltoes -6.211166273636359
192
root 0 0 0 0.46050802396509205 -3.167686752881307 1.2529663751629492
lowerback 11.504479822736497 0.6340141004777821 -0.5281139210846705
upperback -2.7782620342676334 0.8014414489957403 0.017256168543585693
thorax -9.449665059592126 0.3577682162631984 0.19588473611573076
lowerneck -9.801199681554099 0.26121429635428006 2.3752069623942513
upperneck 18.552635410787698 1.1301955009637257 -5.503484793958144
head 7.447430676647015 0.2724215773276475 -2.0898222579615107
rclavicle 2.124841707840164E-16 -7.382187066493348E-16
rhumerus 2.581575490316709 3.438287153455967 -59.565610634273
rradius 56.19604156022043
rwrist 17.539617201513792
rhand -28.40035013872916 -27.54448750448596
rfingers 7.125019999999986
rthumb -1.767852769297991 -57.78332901451552
lclavicle -8.353034155002716E-16 -1.751029080290932E-16
lhumerus 3.07219239031836 -9.599364127381028 59.03744424546129
lradius 55.77280086306334
lwrist -11.27142078482793
lhand -38.860757239923224 -35.988099008278276
lfingers 7.125019999999983
lthumb -11.80186549631043 -6.2956407581053355
rfemur -25.269682119925037 1.7969707587462997 20.033485132694505
rtibia 47.706876964666094
rfoot -7.333110670449866 -9.854919634885432
rtoes -1.4327441030563166
lfemur -14.880316517665342 -0.31989367827830717 -17.18329813166919
ltibia 42.47534216047757
lfoot -6.055822566819929 -4.737418742063624
ltoes -6.225447742376922
193
root 0 0 0 0.46058878300829686 -3.1664288611654334 1.2552043621607323
lowerback 11.504624426893754 0.633200196362009 -0.5303160612509593
upperback -2.7784561288440184 0.8000614620007054 0.01710137310857296
thorax -9.45000121672395 0.3571483030897644 0.1972335389151333
lowerneck -9.800554348808383 0.2615648525829637 2.375407998126367
upperneck 18.552778218118874 1.1307893284827997 -5.504031669297782
head 7.447398901803904 0.2726896042977587 -2.0899626518337913
rclavicle 2.1264046909136166E-16 -7.381565235955261E-16
rhumerus 2.58181198944461 3.4383943256081633 -59.565365672904434
rradius 56.19629247479687
rwrist 17.539780904598068
rhand -28.40042681609969 -27.544920428347115
rfingers 7.125019999999986
rthumb -1.7679473959545025 -57.783791436114086
lclavicle -8.353253681313524E-16 -1.7511644150081813E-16
lhumerus 3.0718829295849694 -9.599239115765121 59.03765505318724
lradius 55.77247944384767
lwrist -11.271315882974418
lhand -38.860636992458836 -35.98767817361145
lfingers 7.125019999999983
lthumb -11.801757112992878 -6.295248763905356
rfemur -25.30560838939903 1.787187268465821 20.015571851810243
rtibia 47.750157428511386
rfoot -7.315728282758366 -9.85915822030619
rtoes -1.433934583650029
lfemur -14.88368925677274 -0.3121796144424811 -17.177555060862776
ltibia 42.52953363928768
lfoot -6.037223306772443 -4.756971236505937
ltoes -6.2351037190318825
194
root 0 0 0 0.4607454023101485 -3.164364534844895 1.2587128808340975
lowerback 11.50480320860903 0.631875431626439 -0.5338408000827598
upperback -2.7787487302321074 0.797833467600877 0.016887940784575894
thorax -9.450478270889306 0.3561486251811831 0.19940474576879286
lowerneck -9.799627641515876 0.262128789079493 2.375689383445289
upperneck 18.55284572262061 1.131702443601168 -5.504802826632646
head 7.447301869420956 0.27310693831276067 -2.090147829750171
rclavicle 2.126760067419988E-16 -7.380800757859602E-16
rhumerus 2.5819572522622636 3.4384389712161454 -59.56524130353942
rradius 56.19641356629932
rwrist 17.53989515599863
rhand -28.40047056105181 -27.545162279978197
rfingers 7.125019999999986
rthumb -1.767999073918186 -57.78404298950233
lclavicle -8.352933955046781E-16 -1.7496554361141114E-16
lhumerus 3.0732375139588264 -9.599611280406487 59.03672157942408
lradius 55.77352399298404
lwrist -11.271961647447858
lhand -38.86109177494161 -35.98992655009959
lfingers 7.125019999999983
lthumb -11.802184621704015 -6.297570420260712
rfemur -25.348411986585262 1.7762352824582277 19.994444661622744
rtibia 47.794233036377584
rfoot -7.299997569706964 -9.865882069980147
rtoes -1.4392004166076802
lfemur -14.890777001411728 -0.30507799944292846 -17.170802567371236
ltibia 42.57951984548836
lfoot -6.019962174571457 -4.773860051648818
ltoes -6.243024335838609
